<svg xmlns="http://www.w3.org/2000/svg" xmlns:xlink="http://www.w3.org/1999/xlink" width="1080" zoomAndPan="magnify" viewBox="0 0 810 809.999993" height="1080" preserveAspectRatio="xMidYMid meet" version="1.0"><defs><clipPath id="c4c0b6fb0f"><path d="M 58.070312 243 L 634 243 L 634 751.820312 L 58.070312 751.820312 Z M 58.070312 243 " clip-rule="nonzero"/></clipPath><clipPath id="b0f25aeffe"><path d="M 69 58.070312 L 751.820312 58.070312 L 751.820312 648 L 69 648 Z M 69 58.070312 " clip-rule="nonzero"/></clipPath><clipPath id="602e152bcd"><path d="M 384.101562 420.527344 L 446.710938 420.527344 L 446.710938 483.136719 L 384.101562 483.136719 Z M 384.101562 420.527344 " clip-rule="nonzero"/></clipPath><clipPath id="d54c4fbd02"><path d="M 415.40625 420.527344 C 398.117188 420.527344 384.101562 434.542969 384.101562 451.832031 C 384.101562 469.121094 398.117188 483.136719 415.40625 483.136719 C 432.695312 483.136719 446.710938 469.121094 446.710938 451.832031 C 446.710938 434.542969 432.695312 420.527344 415.40625 420.527344 Z M 415.40625 420.527344 " clip-rule="nonzero"/></clipPath></defs><g clip-path="url(#c4c0b6fb0f)"><path fill="#ffc635" d="M 593.351562 476.554688 L 543.914062 243.96875 L 473.085938 243.96875 L 322.75 551.578125 L 406.15625 551.578125 L 433.476562 489.851562 L 515.582031 489.851562 L 519.773438 510.667969 L 545.503906 639.03125 C 538.855469 643.078125 532.0625 646.691406 525.125 650.160156 C 488.839844 668.085938 448.078125 678.058594 405 678.058594 C 254.519531 678.058594 131.9375 555.625 131.9375 405 C 131.9375 381.582031 134.828125 359.03125 140.46875 337.347656 L 64.722656 337.347656 C 60.382812 359.320312 58.070312 381.871094 58.070312 405 C 58.070312 596.242188 213.753906 751.925781 405 751.925781 C 452.847656 751.925781 498.527344 742.242188 540.011719 724.605469 C 547.09375 721.570312 553.890625 718.390625 560.683594 715.066406 C 586.992188 701.765625 611.566406 685.289062 633.539062 665.917969 L 615.179688 579.332031 Z M 460.941406 420.753906 L 494.765625 330.84375 L 497.800781 330.84375 L 506.910156 420.753906 Z M 460.941406 420.753906 " fill-opacity="1" fill-rule="nonzero"/></g><g clip-path="url(#b0f25aeffe)"><path fill="#ffffff" d="M 751.925781 405 C 751.925781 499.539062 713.910156 585.402344 652.328125 647.992188 L 632.671875 555.480469 C 661.292969 512.402344 678.058594 460.507812 678.058594 405 C 678.058594 254.375 555.625 131.9375 405 131.9375 C 324.917969 131.9375 252.785156 166.632812 202.769531 221.851562 C 196.410156 228.933594 190.339844 236.304688 184.699219 243.96875 L 448.078125 243.96875 L 411.792969 315.230469 L 328.820312 315.230469 L 296.296875 552.011719 L 217.660156 552.011719 L 250.183594 315.230469 L 69.925781 315.230469 C 76.574219 290.222656 85.96875 266.371094 97.824219 243.96875 C 101.726562 236.449219 106.0625 228.933594 110.542969 221.851562 C 171.835938 123.554688 280.828125 58.070312 405 58.070312 C 596.242188 58.070312 751.925781 213.753906 751.925781 405 Z M 751.925781 405 " fill-opacity="1" fill-rule="nonzero"/></g><g clip-path="url(#602e152bcd)"><g clip-path="url(#d54c4fbd02)"><path fill="#ffc635" d="M 384.101562 420.527344 L 446.710938 420.527344 L 446.710938 483.136719 L 384.101562 483.136719 Z M 384.101562 420.527344 " fill-opacity="1" fill-rule="nonzero"/></g></g></svg>